<?xml version="1.0" standalone="no"?>
<!DOCTYPE svg PUBLIC "-//W3C//DTD SVG 20010904//EN"
 "http://www.w3.org/TR/2001/REC-SVG-20010904/DTD/svg10.dtd">
<svg version="1.0" xmlns="http://www.w3.org/2000/svg"
width="512.000000pt" height="512.000000pt" viewBox="0 0 512.000000 512.000000"
preserveAspectRatio="xMidYMid meet">

<g transform="translate(0.000000,512.000000) scale(0.100000,-0.100000)"
fill="#ffffff" stroke="none">
<path d="M2325 5109 c-498 -46 -992 -248 -1380 -564 -114 -93 -293 -274 -387
-390 -217 -271 -393 -627 -478 -965 -152 -603 -86 -1212 191 -1769 249 -503
646 -900 1150 -1150 630 -314 1338 -356 2004 -120 151 54 400 177 535 266 397
261 722 637 920 1063 330 713 319 1517 -31 2219 -130 262 -265 451 -472 660
-209 211 -411 357 -678 490 -430 214 -903 304 -1374 260z m-275 -400 c122 -68
220 -134 219 -149 0 -8 -64 -206 -142 -440 l-142 -424 -95 -38 c-144 -58 -478
-226 -638 -323 l-143 -86 -37 21 c-20 12 -149 88 -285 168 l-248 147 6 32 c9
51 119 321 178 439 49 99 65 119 158 211 57 57 136 128 174 159 180 144 458
304 649 373 l80 29 105 -45 c58 -24 130 -57 161 -74z m1660 -46 c192 -103 384
-249 552 -419 135 -136 223 -246 320 -399 72 -115 163 -283 156 -290 -2 -2
-35 17 -73 41 -82 53 -352 189 -409 206 -35 11 -88 66 -415 436 -398 448 -395
444 -377 518 l6 23 78 -35 c42 -19 115 -56 162 -81z m-78 -435 c177 -200 351
-395 386 -435 l64 -72 -32 -98 c-38 -115 -209 -554 -222 -568 -12 -13 -1112
-125 -1119 -114 -13 22 -431 492 -505 568 l-81 84 153 460 c85 254 158 465
163 470 18 18 524 63 738 66 l132 1 323 -362z m-2911 -939 c151 -89 280 -167
286 -173 9 -8 16 -80 23 -226 10 -221 36 -450 69 -623 l18 -98 -214 -337
c-118 -185 -221 -343 -228 -351 -11 -11 -28 -3 -105 50 -51 35 -131 97 -179
139 l-85 75 -32 100 c-113 353 -138 773 -68 1160 12 62 28 110 52 155 34 61
181 290 187 290 2 0 126 -73 276 -161z m3223 -560 c126 -193 216 -345 290
-489 l59 -115 -277 -516 -276 -515 -113 -18 c-241 -39 -525 -66 -692 -66
l-110 0 -270 466 c-149 257 -271 472 -273 480 -2 7 50 113 116 236 66 123 161
303 212 401 75 145 96 177 113 178 12 0 249 24 527 53 278 30 525 54 550 55
l46 1 98 -151z m991 -475 c-64 -515 -299 -999 -668 -1373 -124 -126 -295 -268
-301 -249 -2 7 -12 56 -21 108 -9 52 -27 135 -41 183 l-24 88 286 534 286 534
102 50 c120 59 283 155 346 204 25 19 46 34 47 33 1 0 -5 -51 -12 -112z
m-3557 -258 c161 -41 390 -86 610 -122 86 -14 162 -30 168 -37 6 -7 81 -133
167 -282 85 -148 202 -352 260 -452 l105 -181 -141 -194 c-78 -107 -153 -209
-167 -227 l-26 -32 -569 102 c-548 97 -571 102 -593 127 -40 47 -127 164 -194
262 -67 98 -218 354 -218 370 0 15 441 700 451 700 6 0 72 -15 147 -34z m496
-1606 c371 -66 470 -87 510 -108 28 -14 97 -44 154 -67 l103 -42 -55 -6 c-60
-6 -257 6 -374 23 -211 30 -479 111 -674 203 -118 55 -185 95 -143 83 11 -3
227 -42 479 -86z"/>
</g>
</svg>