<?xml version="1.0" standalone="no"?>
<!DOCTYPE svg PUBLIC "-//W3C//DTD SVG 20010904//EN"
 "http://www.w3.org/TR/2001/REC-SVG-20010904/DTD/svg10.dtd">
<svg version="1.0" xmlns="http://www.w3.org/2000/svg"
width="580.000000pt" height="580.000000pt" viewBox="0 0 580.000000 580.000000"
preserveAspectRatio="xMidYMid meet">

<g transform="translate(0.000000,580.000000) scale(0.100000,-0.100000)"
fill="#FCD667" stroke="#000000">
<path d="M2776 5479 c-112 -39 -187 -107 -240 -219 -28 -58 -31 -74 -31 -160
0 -86 3 -101 31 -161 36 -75 88 -138 142 -171 21 -12 38 -22 40 -24 2 -1 -173
-354 -388 -784 l-391 -781 -42 24 c-23 14 -292 175 -598 358 l-555 334 25 55
c22 47 26 69 26 150 0 86 -3 101 -31 160 -54 113 -128 181 -242 219 -147 50
-318 3 -422 -115 -18 -21 -47 -68 -64 -104 -28 -58 -31 -74 -31 -160 0 -86 3
-101 32 -162 43 -92 101 -151 188 -194 61 -30 87 -37 158 -41 l84 -6 212
-1276 c117 -702 215 -1286 218 -1298 l5 -23 1998 0 1998 0 5 22 c3 13 101 597
218 1299 l212 1276 84 6 c157 9 279 92 346 235 29 61 32 76 32 162 0 86 -3
102 -31 160 -54 113 -128 181 -242 219 -79 27 -165 27 -244 0 -114 -38 -188
-106 -242 -219 -28 -59 -31 -74 -31 -160 0 -81 4 -103 26 -150 l25 -55 -555
-334 c-306 -183 -575 -344 -598 -358 l-42 -24 -391 781 c-215 430 -390 783
-388 784 2 2 19 12 40 24 54 33 106 96 142 171 28 60 31 75 31 161 0 86 -3
102 -31 160 -17 36 -46 83 -64 104 -104 118 -278 165 -424 115z"/>
<path d="M920 978 c1 -2 13 -75 28 -163 l28 -160 1924 0 1924 0 28 160 c15 88
27 161 28 163 0 1 -891 2 -1980 2 -1089 0 -1980 -1 -1980 -2z"/>
</g>
</svg>